<?xml version="1.0" encoding="UTF-8"?>
<svg version="1.1" xmlns="http://www.w3.org/2000/svg" width="512" height="512">
<path d="M0 0 C1.23899048 -0.01283524 2.47798096 -0.02567047 3.7545166 -0.03889465 C5.10131423 -0.04706769 6.44811646 -0.05451034 7.79492188 -0.0612793 C8.48019455 -0.06535482 9.16546722 -0.06943035 9.87150574 -0.07362938 C13.50450329 -0.09444803 17.13746364 -0.10876328 20.77050781 -0.11816406 C24.48772343 -0.1291713 28.204331 -0.16351606 31.92133331 -0.20333576 C34.80933594 -0.22973297 37.6971993 -0.23787647 40.58531189 -0.24144554 C42.61071372 -0.248571 44.63601943 -0.27491366 46.66125488 -0.30183411 C63.55501345 -0.2627394 77.9643081 5.40566839 89.99804688 17.2199707 C100.27057497 27.85141006 105.99656949 41.82219971 105.82617188 56.48950195 C105.82166016 57.23006836 105.81714844 57.97063477 105.8125 58.73364258 C105.80079362 60.54813094 105.78286085 62.3625773 105.76367188 64.17700195 C107.15309494 64.16367828 107.15309494 64.16367828 108.57058716 64.15008545 C117.31005682 64.06985829 126.04940237 64.00899619 134.78915596 63.96975327 C139.28212346 63.94889958 143.77478608 63.92062278 148.26757812 63.87524414 C152.6053351 63.83170677 156.94279925 63.80784815 161.2807579 63.79749298 C162.93375125 63.79011573 164.586729 63.77570949 166.23959732 63.75408173 C168.55933208 63.72494176 170.87786487 63.72105021 173.19775391 63.72290039 C174.51679718 63.71401794 175.83584045 63.7051355 177.19485474 63.69598389 C182.51521116 64.41308075 185.54117566 66.82234399 189.07617188 70.73950195 C192.02535174 74.99942843 192.28154772 79.1325076 191.76367188 84.17700195 C189.7607052 89.85207421 186.15017009 93.48375285 180.76367188 96.17700195 C178.88987582 96.24733964 177.01366086 96.26130415 175.13867188 96.23950195 C174.13578125 96.23047852 173.13289063 96.22145508 172.09960938 96.2121582 C171.32875 96.20055664 170.55789063 96.18895508 169.76367188 96.17700195 C169.76519076 96.74760934 169.76670964 97.31821672 169.76827455 97.90611523 C169.85787668 131.75963163 169.92646342 165.61312097 169.96793319 199.46673019 C169.97293574 203.53576303 169.97811306 207.60479564 169.98339844 211.67382812 C169.98444768 212.48386531 169.98549692 213.29390249 169.98657796 214.12848625 C170.0039613 227.22739048 170.03548752 240.32622415 170.07228306 253.42508658 C170.10975023 266.87568256 170.13191991 280.3262417 170.14002585 293.77688771 C170.14550168 302.07002803 170.16276751 310.3629689 170.19533774 318.6560478 C170.21655703 324.35060955 170.22285524 330.04506889 170.21767738 335.73966726 C170.21512703 339.02033931 170.22112748 342.30059304 170.24049377 345.58121872 C170.3828322 370.9446614 170.3828322 370.9446614 165.76367188 381.17700195 C165.32879581 382.14685122 164.89391975 383.1167005 164.44586563 384.11593914 C157.3683886 399.03382995 144.94466005 408.5369955 129.77929688 414.1965332 C124.45563284 415.92741361 119.536141 416.32559342 113.96081543 416.32417297 C113.18167361 416.32784966 112.40253179 416.33152635 111.59977961 416.33531445 C108.99229425 416.3463161 106.3848488 416.35018918 103.77734375 416.35400391 C101.90609614 416.36027135 100.03484976 416.3669184 98.16360474 416.37391663 C92.01988589 416.39493071 85.87616687 416.40531837 79.73242188 416.4152832 C77.61379483 416.41933212 75.49516792 416.42344908 73.37654114 416.42763329 C63.41916185 416.44668123 53.46178996 416.4609116 43.50439596 416.46924525 C32.02968608 416.47900849 20.55516957 416.50530589 9.08052778 416.54574615 C0.19961625 416.57596539 -8.68124005 416.59071974 -17.56220198 416.59402627 C-22.86057084 416.59637062 -28.15873304 416.60525057 -33.45704651 416.63048744 C-38.4475705 416.65387413 -43.43775331 416.65795897 -48.42831802 416.64772606 C-50.25151331 416.64723312 -52.07472599 416.65348163 -53.89786911 416.6672821 C-73.5315564 416.80748372 -89.32790774 411.92219288 -103.57226562 397.9621582 C-112.3487879 388.7867031 -118.36530221 376.17973068 -118.35937595 363.31383801 C-118.361367 362.35639917 -118.36335805 361.39896033 -118.36540943 360.41250819 C-118.36249659 359.36873446 -118.35958375 358.32496073 -118.35658264 357.2495575 C-118.35743707 356.13455913 -118.35829149 355.01956076 -118.35917181 353.87077457 C-118.36082147 350.12737513 -118.35531358 346.38402032 -118.34985352 342.640625 C-118.34957151 339.96011758 -118.34968559 337.27961292 -118.35029602 334.59910583 C-118.35082026 328.82441939 -118.34768386 323.04974425 -118.34205818 317.27506065 C-118.33392969 308.92584755 -118.33132658 300.57663992 -118.33007019 292.22742329 C-118.3278818 278.68123482 -118.32122746 265.13505238 -118.31176758 251.58886719 C-118.30258797 238.43033885 -118.29550982 225.27181215 -118.29125977 212.11328125 C-118.29086568 210.89655748 -118.29086568 210.89655748 -118.29046363 209.65525343 C-118.28915859 205.58593923 -118.28789489 201.51662502 -118.28665173 197.44731081 C-118.27628573 163.69053682 -118.25867318 129.93377012 -118.23632812 96.17700195 C-118.99051025 96.19657959 -119.74469238 96.21615723 -120.52172852 96.23632812 C-121.51164795 96.25155518 -122.50156738 96.26678223 -123.52148438 96.2824707 C-124.99307007 96.31183716 -124.99307007 96.31183716 -126.49438477 96.34179688 C-131.63522159 96.03282485 -134.24568445 93.27474224 -137.54882812 89.61450195 C-140.49495366 85.35898729 -140.76342878 81.21800094 -140.23632812 76.17700195 C-138.48844151 71.48530631 -135.99168164 68.46293628 -132.23632812 65.17700195 C-128.74954029 64.01473934 -125.63628692 64.04460098 -122.01098633 64.06347656 C-121.27903046 64.06333054 -120.54707458 64.06318451 -119.79293823 64.06303406 C-117.37429844 64.06373056 -114.95573571 64.07151067 -112.53710938 64.0793457 C-110.85987897 64.08121082 -109.18264802 64.08263428 -107.50541687 64.08363342 C-103.09132381 64.08745125 -98.67726366 64.09727529 -94.26318359 64.1083374 C-89.75879359 64.11856729 -85.25439827 64.12313443 -80.75 64.12817383 C-71.91209492 64.1388982 -63.07421426 64.15596584 -54.23632812 64.17700195 C-54.25590576 63.1017627 -54.2754834 62.02652344 -54.2956543 60.91870117 C-54.31149428 59.48136892 -54.32684928 58.04403126 -54.34179688 56.60668945 C-54.35593628 55.90116943 -54.37007568 55.19564941 -54.38464355 54.46875 C-54.43850083 47.5391141 -52.80722514 41.6042445 -50.23632812 35.17700195 C-49.90890625 34.31719727 -49.58148438 33.45739258 -49.24414062 32.5715332 C-42.5723306 17.25558975 -28.91428941 8.20765466 -13.96289062 2.12231445 C-9.26676173 0.49414369 -4.9606436 0.04494003 0 0 Z M-16.06445312 42.2199707 C-21.06625561 49.07923867 -22.23632812 55.81896032 -22.23632812 64.17700195 C9.44367188 64.17700195 41.12367188 64.17700195 73.76367188 64.17700195 C72.8857569 53.64202226 72.19325818 45.89370607 64.38867188 38.73950195 C56.26675364 32.50271441 47.68683447 32.02112888 37.86914062 32.0090332 C36.9223494 32.0057048 35.97555817 32.0023764 35.00007629 31.99894714 C33.00225305 31.99389884 31.00442142 31.99153817 29.0065918 31.99169922 C25.97169894 31.98951671 22.93717222 31.97134949 19.90234375 31.95239258 C17.95377727 31.94945731 16.00520909 31.94747341 14.05664062 31.9465332 C13.15946823 31.93934769 12.26229584 31.93216217 11.3379364 31.92475891 C0.55529342 31.9632947 -8.61357194 33.89345177 -16.06445312 42.2199707 Z " fill="#91CAFE" transform="translate(230.236328125,47.822998046875)"/>
<path d="M0 0 C1.23899048 -0.01283524 2.47798096 -0.02567047 3.7545166 -0.03889465 C5.10131423 -0.04706769 6.44811646 -0.05451034 7.79492188 -0.0612793 C8.48019455 -0.06535482 9.16546722 -0.06943035 9.87150574 -0.07362938 C13.50450329 -0.09444803 17.13746364 -0.10876328 20.77050781 -0.11816406 C24.48772343 -0.1291713 28.204331 -0.16351606 31.92133331 -0.20333576 C34.80933594 -0.22973297 37.6971993 -0.23787647 40.58531189 -0.24144554 C42.61071372 -0.248571 44.63601943 -0.27491366 46.66125488 -0.30183411 C63.55501345 -0.2627394 77.9643081 5.40566839 89.99804688 17.2199707 C103.03648519 30.71395826 105.76367188 45.91333119 105.76367188 64.17700195 C95.20367187 64.17700195 84.64367187 64.17700195 73.76367188 64.17700195 C72.77367187 59.22700195 71.78367187 54.27700195 70.76367188 49.17700195 C67.33713617 42.64267804 63.7282473 37.97858399 56.76367188 35.17700195 C50.33524716 33.35593276 44.23191952 32.88102471 37.57617188 32.91137695 C36.63362549 32.9094635 35.6910791 32.90755005 34.7199707 32.90557861 C32.74006888 32.90422611 30.7601579 32.90785673 28.78027344 32.91625977 C25.7719303 32.92697254 22.76418422 32.9163324 19.75585938 32.90356445 C17.82096224 32.90488621 15.88606547 32.90744895 13.95117188 32.91137695 C13.06341064 32.90732849 12.17564941 32.90328003 11.26098633 32.89910889 C1.38950172 32.97222234 -6.62847471 34.59043625 -14.23632812 41.17700195 C-20.42826695 47.6615946 -20.44971785 55.24395059 -22.23632812 64.17700195 C-32.79632813 64.17700195 -43.35632813 64.17700195 -54.23632812 64.17700195 C-54.23632812 45.17700195 -54.23632812 45.17700195 -50.23632812 35.17700195 C-49.90890625 34.31719727 -49.58148438 33.45739258 -49.24414062 32.5715332 C-42.5723306 17.25558975 -28.91428941 8.20765466 -13.96289062 2.12231445 C-9.26676173 0.49414369 -4.9606436 0.04494003 0 0 Z " fill="#46A6FD" transform="translate(230.236328125,47.822998046875)"/>
<path d="M0 0 C4.12593192 2.87855716 7.06537651 6.00862953 8.6875 10.875 C8.78686045 12.41759196 8.83099144 13.96405783 8.84140015 15.5098114 C8.85000061 16.46158768 8.85860107 17.41336395 8.86746216 18.39398193 C8.87172211 19.43661194 8.87598206 20.47924194 8.88037109 21.5534668 C8.89263733 23.20270897 8.89263733 23.20270897 8.90515137 24.88526917 C8.9300063 28.53158014 8.94652226 32.17785216 8.9609375 35.82421875 C8.96626118 37.06919443 8.97158485 38.31417011 8.97706985 39.59687233 C8.99829979 44.83062623 9.017429 50.06437428 9.02869225 55.2981596 C9.04491421 62.78571444 9.07805241 70.27274897 9.13509309 77.7601077 C9.17855812 83.66807239 9.19444701 89.57592185 9.20082474 95.48404884 C9.20753914 97.9922436 9.22276591 100.50043073 9.24671555 103.00852013 C9.27835519 106.5226012 9.2784047 110.03537425 9.27099609 113.54956055 C9.28740143 114.5820694 9.30380676 115.61457825 9.32070923 116.67837524 C9.26332709 123.341129 7.98082519 127.70912568 3.6875 132.875 C-0.67364394 136.85133712 -5.02322046 137.28549524 -10.73828125 137.21875 C-14.80278957 136.6759932 -17.62442552 134.94097355 -20.3125 131.875 C-23.98135567 126.25598322 -23.75031305 121.04489831 -23.73242188 114.56469727 C-23.74089142 113.4338974 -23.74936096 112.30309753 -23.75808716 111.13803101 C-23.78145717 107.40570788 -23.78247931 103.67379697 -23.78125 99.94140625 C-23.78835121 97.34358048 -23.79605015 94.74575627 -23.80432129 92.14793396 C-23.81776592 86.70493574 -23.8195162 81.26209833 -23.81347656 75.8190918 C-23.80683566 69.53865079 -23.82970756 63.25879707 -23.86679029 56.97847515 C-23.90124297 50.92251869 -23.90781983 44.86687317 -23.90370178 38.81080437 C-23.90539454 36.24039904 -23.91505189 33.66998609 -23.93284607 31.0996418 C-23.9549991 27.50418723 -23.94535051 23.91014731 -23.92773438 20.31469727 C-23.94762924 18.72553246 -23.94762924 18.72553246 -23.96792603 17.10426331 C-23.89109688 10.34992536 -22.8425908 6.94182196 -18.3125 1.875 C-13.18314393 -2.66814395 -6.16440278 -2.09357076 0 0 Z " fill="#C7E3FD" transform="translate(306.3125,220.125)"/>
<path d="M0 0 C4.14372034 2.16623992 7.1265119 5.01978208 8.92578125 9.31640625 C9.50598743 13.08806807 9.47242255 16.81666779 9.44335938 20.62670898 C9.45036865 21.75750885 9.45737793 22.88830872 9.46459961 24.05337524 C9.4821831 27.7858344 9.47055392 31.51753332 9.45703125 35.25 C9.45972623 37.84782557 9.46360869 40.44565017 9.46862793 43.04347229 C9.47452367 48.4865269 9.46634077 53.92929679 9.44726562 59.37231445 C9.42550918 65.65269745 9.43254229 71.93256073 9.45457125 78.2129311 C9.47495782 84.26889396 9.47273942 90.32460393 9.46104431 96.38060188 C9.45837849 98.95099015 9.46164166 101.5213917 9.47096252 104.09176445 C9.48113824 107.6871015 9.46561018 111.28144573 9.44335938 114.87670898 C9.4514563 115.93615219 9.45955322 116.9955954 9.46789551 118.08714294 C9.39592101 124.37514327 8.68569784 128.21033916 4.92578125 133.31640625 C0.13632701 137.05218056 -3.65500426 137.98521665 -9.71484375 137.69140625 C-14.08575482 136.99669191 -16.61210438 135.06808892 -19.40823269 131.71819401 C-23.47122814 125.89864887 -23.78471076 121.0223739 -23.70532227 114.05444336 C-23.71247757 112.95261215 -23.71963287 111.85078094 -23.727005 110.71556091 C-23.74384638 107.09119593 -23.72451562 103.46807566 -23.703125 99.84375 C-23.70395405 97.31604409 -23.70641478 94.78833823 -23.71043396 92.26063538 C-23.7132888 86.97069591 -23.69915321 81.68119292 -23.67114258 76.39135742 C-23.63907862 70.28927594 -23.63911615 64.1878336 -23.65635735 58.08570665 C-23.67225936 52.19633686 -23.66536699 46.30716192 -23.64842033 40.41778755 C-23.64324392 37.9199736 -23.64371374 35.42214125 -23.64996529 32.92432976 C-23.65542544 29.43214411 -23.63501506 25.94103728 -23.60766602 22.44897461 C-23.61419189 21.42072571 -23.62071777 20.39247681 -23.62744141 19.33306885 C-23.54481764 13.1171919 -22.7360273 9.39076415 -19.07421875 4.31640625 C-13.38171041 -0.83395844 -7.52766248 -2.48086805 0 0 Z " fill="#C7E3FE" transform="translate(220.07421875,219.68359375)"/>
</svg>
