<?xml version="1.0" encoding="UTF-8"?>
<svg version="1.1" xmlns="http://www.w3.org/2000/svg" width="512" height="512">
<path d="M0 0 C8.90580154 6.95801642 16.72144743 15.03632264 24.69758987 23.01821709 C26.36378966 24.67842467 28.03039621 26.3382241 29.69737625 27.99764824 C34.20190379 32.48458537 38.69999799 36.97791772 43.19637775 41.47301817 C46.48232107 44.75729635 49.77033112 48.03949943 53.05854081 51.32150827 C61.9074998 60.15389115 70.75191677 68.990796 79.59187761 77.83218454 C80.09243648 78.33282333 80.59299536 78.83346211 81.10872269 79.34927177 C81.60989832 79.85052917 82.11107395 80.35178656 82.62743673 80.86823358 C90.75596343 88.99757379 98.8944319 97.11687976 107.03743973 105.23171209 C115.41876325 113.58426589 123.79256364 121.94429773 132.15865207 130.31211197 C136.84774432 135.00186638 141.54002998 139.68834197 146.24004745 144.36715126 C150.65830991 148.76601708 155.06682151 153.17442874 159.46812439 157.59026146 C161.08112474 159.20534873 162.69752131 160.81705268 164.31761169 162.42502785 C186.10732618 184.0623579 186.10732618 184.0623579 186.43294144 198.37173271 C186.38227843 216.02356721 177.37434383 225.6605162 165.29208755 237.68392754 C164.44630691 238.53353373 163.60052626 239.38313992 162.7291159 240.25849175 C160.40801853 242.58805173 158.08257162 244.91315961 155.75508964 247.23633742 C153.23542925 249.7535127 150.72154729 252.27644848 148.20686722 254.79859734 C143.29095039 259.72721204 138.36962286 264.6503887 133.44618005 269.57148424 C129.44313216 273.572744 125.44186505 277.5757763 121.4418354 281.58005333 C120.87101805 282.15146587 120.3002007 282.72287841 119.71208585 283.31160648 C118.55224956 284.4726546 117.39241442 285.63370388 116.23258042 286.7947543 C105.37602375 297.66216668 94.51298007 308.5230765 83.64794176 319.38200811 C73.7184 329.30637736 63.79710457 339.23894393 53.8796537 349.17539439 C43.67992799 359.39450966 33.47464068 369.60804016 23.26333755 379.81558728 C17.53703839 385.53997676 11.81294642 391.26653167 6.09468651 396.99895287 C1.22899 401.87657808 -3.64195067 406.74889166 -8.5196579 411.61450711 C-11.00557423 414.09454647 -13.48906225 416.57689078 -15.9660244 419.06587601 C-18.65743506 421.76775243 -21.35796304 424.46018169 -24.06093979 427.15048027 C-24.83469356 427.93160832 -25.60844732 428.71273637 -26.40564817 429.51753497 C-36.23517405 439.25055921 -45.89848514 445.17214702 -59.94791794 445.66323662 C-60.99979294 445.53948662 -62.05166794 445.41573662 -63.13541794 445.28823662 C-67.12421651 445.82007643 -68.95459859 448.0330597 -71.72526169 450.83901787 C-74.55436734 453.16097277 -77.57921037 454.27410661 -80.94791794 455.66323662 C-79.68563055 455.66681915 -79.68563055 455.66681915 -78.39784241 455.67047405 C-57.93392341 455.72957669 -37.47012265 455.80509629 -17.0063324 455.89895153 C-7.11024413 455.94394194 2.78580789 455.98334909 12.68196487 456.00967216 C21.30615276 456.03262599 29.93022624 456.06599462 38.55432343 456.11193818 C43.12190981 456.13590576 47.68938263 456.15461133 52.25703049 456.16085052 C56.55475791 456.16688544 60.85219465 456.18682724 65.14981461 456.21751213 C66.7284201 456.226318 68.30706353 456.23000968 69.8856926 456.22824478 C72.03912954 456.22659716 74.19167495 456.24324597 76.34498978 456.2645092 C77.550695 456.26911817 78.75640022 456.27372713 79.99864197 456.27847576 C83.33600928 456.699014 84.72814719 457.26196147 87.05208206 459.66323662 C87.92489355 463.09213888 88.38131035 465.55583238 87.36458206 468.97573662 C85.73506773 471.07082648 84.51988727 471.67937435 82.05208206 472.66323662 C79.35530335 472.91508561 79.35530335 472.91508561 76.20148182 472.91771221 C74.99831304 472.92354441 73.79514426 472.9293766 72.55551583 472.93538553 C71.21872314 472.93175225 69.88193097 472.92792787 68.54513931 472.92393303 C67.12631718 472.92695277 65.70749668 472.93084136 64.28867906 472.9355256 C60.38520019 472.94583724 56.48181284 472.94361575 52.57832634 472.939345 C48.37034425 472.93688351 44.16238452 472.94588473 39.95441055 472.95338249 C31.70886137 472.9661475 23.46334473 472.96792095 15.21778733 472.96558223 C8.51740631 472.96380097 1.81703519 472.96554458 -4.88334465 472.96980667 C-6.31245269 472.97069945 -6.31245269 472.97069945 -7.7704316 472.97161027 C-9.70576481 472.97282199 -11.64109802 472.97403613 -13.57643122 472.97525265 C-31.73573804 472.98613507 -49.8950263 472.98396234 -68.05433417 472.9778678 C-84.67616496 472.97269767 -101.29793715 472.98395539 -117.91975635 473.00296602 C-134.97744987 473.02232598 -152.03511564 473.03060369 -169.09282023 473.02684277 C-178.67327684 473.02492797 -188.25368357 473.02744542 -197.83413124 473.04155731 C-205.98973801 473.05344861 -214.14526419 473.05490136 -222.30087202 473.04276714 C-226.46349437 473.03686266 -230.62596917 473.03582216 -234.78858185 473.04776955 C-238.59756592 473.05857511 -242.4062783 473.05558902 -246.21524937 473.04150786 C-247.59475188 473.03884617 -248.97427532 473.04127339 -250.35375737 473.04924373 C-252.22630713 473.05931375 -254.09893317 473.04915832 -255.97147655 473.03796673 C-257.01240001 473.03802174 -258.05332347 473.03807676 -259.12579006 473.03813344 C-262.40131099 472.60300702 -264.2950496 471.60260504 -266.94791794 469.66323662 C-267.79557419 467.79604912 -267.79557419 467.79604912 -268.01041794 465.78823662 C-268.15157028 464.80210381 -268.15157028 464.80210381 -268.29557419 463.79604912 C-267.75369235 460.4716954 -266.36833657 458.9585286 -263.94791794 456.66323662 C-260.71354294 455.95620537 -260.71354294 455.95620537 -257.19791794 455.85073662 C-256.02744919 455.80304131 -254.85698044 455.75534599 -253.65104294 455.70620537 C-252.75901169 455.69202568 -251.86698044 455.67784599 -250.94791794 455.66323662 C-251.54217575 455.35772881 -252.13643356 455.05222099 -252.74869919 454.73745537 C-263.51467974 448.79356253 -271.21968168 439.90434894 -278.78776169 430.37417412 C-280.16519233 428.64553603 -281.57160572 426.93933435 -283.01432419 425.26479912 C-306.47593166 397.87132004 -328.79538295 361.76382599 -325.94791794 324.66323662 C-325.255474 320.08383191 -323.77738683 315.90978527 -321.94791794 311.66323662 C-321.62049606 310.81116631 -321.29307419 309.95909599 -320.95573044 309.08120537 C-315.87477635 297.30600154 -304.76098547 288.45614573 -295.68619919 279.76089287 C-293.32846706 277.4833854 -290.97154695 275.20505437 -288.61716938 272.92407894 C-286.18949612 270.57559065 -283.75088338 268.24068577 -281.28800583 265.92910576 C-278.4055901 263.22199841 -275.57707319 260.46194948 -272.74869919 257.69839287 C-271.86450806 256.8844355 -270.98031693 256.07047813 -270.06933212 255.23185539 C-266.56116679 251.74202699 -264.19723277 249.32561454 -263.44800949 244.32995415 C-263.42086605 240.90468684 -263.42086605 240.90468684 -263.74837875 237.66688347 C-264.31545476 229.1307352 -259.89858454 222.23905095 -254.94791794 215.66323662 C-252.15568485 212.47424197 -249.18796494 209.48484535 -246.18287277 206.49705315 C-245.31233281 205.61971651 -244.44179284 204.74237988 -243.54487288 203.83845729 C-241.14700895 201.42497648 -238.74268241 199.01829674 -236.33523297 196.61440051 C-233.732599 194.01238213 -231.13859411 191.40178369 -228.54337692 188.79237175 C-223.46538109 183.68953358 -218.37914947 178.59498334 -213.28955667 173.50371436 C-209.1505539 169.36328274 -205.01393579 165.22048357 -200.87896729 161.0760231 C-189.13983207 149.31049164 -177.39445181 137.5512462 -165.64098458 125.80003182 C-165.00831263 125.16747973 -164.37564067 124.53492765 -163.72379684 123.88320732 C-163.09034602 123.24987914 -162.45689519 122.61655095 -161.80424888 121.964031 C-151.53808333 111.69908489 -141.28696807 101.4192535 -131.04258113 91.1325765 C-120.5084188 80.55527362 -109.9630601 69.98924753 -99.40601027 59.43478698 C-93.48529014 53.51506091 -87.56923373 47.59084425 -81.66521454 41.65445709 C-76.63905583 36.60091867 -71.60253714 31.55799191 -66.55251996 26.52829079 C-63.97935807 23.96489137 -61.41115606 21.39701436 -58.85597229 18.81568336 C-56.0785384 16.01012306 -53.27791666 13.22844642 -50.47486496 10.44846916 C-49.68124884 9.63942235 -48.88763272 8.83037554 -48.06996763 7.99681216 C-35.35872421 -4.48538175 -16.01422645 -10.98980152 0 0 Z " fill="#32ABF7" transform="translate(325.9479179382324,22.336763381958008)"/>
<path d="M0 0 C2 2 2 2 2.85522461 4.15454102 C7.6086109 16.09291385 17.52565822 24.1729709 26.5625 32.9375 C28.27678284 34.62163091 29.98968591 36.30716749 31.70117188 37.99414062 C34.83605397 41.08030259 37.97843606 44.15832912 41.13110352 47.22631836 C44.11167096 50.1275902 47.06647389 53.05123568 50 56 C50.72960937 56.71800781 51.45921875 57.43601562 52.2109375 58.17578125 C53.28214844 59.23345703 53.28214844 59.23345703 54.375 60.3125 C55.08398438 61.00988281 55.79296875 61.70726562 56.5234375 62.42578125 C58.41344771 64.39031868 60.17740198 66.36612268 61.94178772 68.43782043 C66.8478738 74.05716723 72.13858574 79.2946941 77.40795898 84.5690918 C78.54889512 85.71466565 79.68963678 86.86043323 80.8302002 88.00637817 C83.90829175 91.09749569 86.98962959 94.18535609 90.07200885 97.27219748 C92.00109443 99.20422706 93.92959706 101.1368367 95.85792732 103.06962013 C101.90192284 109.12725884 107.94789429 115.18291493 113.99677795 121.23567265 C120.96113834 128.20451938 127.91889896 135.17986806 134.87102455 142.16091985 C140.26041394 147.57194871 145.65557668 152.97717672 151.05512863 158.37806445 C154.27378329 161.59776462 157.489987 164.81982338 160.70019341 168.04794884 C163.71827702 171.08255447 166.74349387 174.1098654 169.77422333 177.13183975 C170.881325 178.23817353 171.98589344 179.3470494 173.08764076 180.45871544 C180.26257525 187.69441316 186.89431748 194.22093731 197 197 C195.60424517 200.30686529 194.0752907 202.01575326 191.1875 204.125 C190.52105469 204.62257813 189.85460937 205.12015625 189.16796875 205.6328125 C186.85592382 207.09085885 184.54402883 208.01601115 182 209 C183.26228739 209.00358253 183.26228739 209.00358253 184.55007553 209.00723743 C205.01399453 209.06634007 225.47779529 209.14185967 245.94158554 209.23571491 C255.83767381 209.28070533 265.73372583 209.32011247 275.62988281 209.34643555 C284.2540707 209.36938937 292.87814418 209.402758 301.50224137 209.44870156 C306.06982775 209.47266915 310.63730057 209.49137471 315.20494843 209.49761391 C319.50267585 209.50364882 323.80011259 209.52359063 328.09773254 209.55427551 C329.67633803 209.56308138 331.25498147 209.56677306 332.83361053 209.56500816 C334.98704747 209.56336054 337.13959289 209.58000935 339.29290771 209.60127258 C341.10146555 209.60818603 341.10146555 209.60818603 342.94655991 209.61523914 C346.28392721 210.03577738 347.67606513 210.59872485 350 213 C350.87281149 216.42890226 351.32922829 218.89259577 350.3125 222.3125 C348.68298566 224.40758986 347.46780521 225.01613773 345 226 C342.30322129 226.251849 342.30322129 226.251849 339.14939976 226.25447559 C337.94623098 226.26030779 336.7430622 226.26613998 335.50343376 226.27214891 C334.16664108 226.26851564 332.8298489 226.26469126 331.49305725 226.26069641 C330.07423512 226.26371615 328.65541461 226.26760474 327.236597 226.27228898 C323.33311813 226.28260062 319.42973077 226.28037914 315.52624428 226.27610838 C311.31826219 226.2736469 307.11030246 226.28264811 302.90232849 226.29014587 C294.65677931 226.30291088 286.41126267 226.30468434 278.16570527 226.30234561 C271.46532425 226.30056435 264.76495312 226.30230796 258.06457329 226.30657005 C256.63546525 226.30746284 256.63546525 226.30746284 255.17748634 226.30837366 C253.24215313 226.30958538 251.30681992 226.31079951 249.37148672 226.31201603 C231.2121799 226.32289845 213.05289164 226.32072572 194.89358377 226.31463119 C178.27175298 226.30946105 161.64998079 226.32071878 145.02816159 226.33972941 C127.97046807 226.35908936 110.91280229 226.36736707 93.85509771 226.36360615 C84.2746411 226.36169135 74.69423437 226.3642088 65.1137867 226.37832069 C56.95817993 226.39021199 48.80265374 226.39166474 40.64704592 226.37953053 C36.48442357 226.37362604 32.32194877 226.37258554 28.15933609 226.38453293 C24.35035202 226.39533849 20.54163964 226.3923524 16.73266857 226.37827124 C15.35316606 226.37560955 13.97364262 226.37803677 12.59416056 226.38600711 C10.72161081 226.39607713 8.84898477 226.38592171 6.97644138 226.37473011 C5.93551793 226.37478513 4.89459447 226.37484014 3.82212788 226.37489682 C0.54660695 225.93977041 -1.34713166 224.93936842 -4 223 C-4.84765625 221.1328125 -4.84765625 221.1328125 -5.0625 219.125 C-5.15660156 218.46757812 -5.25070313 217.81015625 -5.34765625 217.1328125 C-4.80577442 213.80845878 -3.42041863 212.29529198 -1 210 C2.234375 209.29296875 2.234375 209.29296875 5.75 209.1875 C7.50570312 209.11595703 7.50570312 209.11595703 9.296875 209.04296875 C10.18890625 209.02878906 11.0809375 209.01460937 12 209 C11.40574219 208.69449219 10.81148438 208.38898438 10.19921875 208.07421875 C-0.5667618 202.13032591 -8.27176374 193.24111233 -15.83984375 183.7109375 C-17.21727439 181.98229941 -18.62368778 180.27609773 -20.06640625 178.6015625 C-43.52801373 151.20808342 -65.84746501 115.10058937 -63 78 C-62.30755607 73.42059529 -60.82946889 69.24654865 -59 65 C-58.67257813 64.14792969 -58.34515625 63.29585938 -58.0078125 62.41796875 C-51.20184604 46.64501729 -34.34601003 34.22251753 -22.31152344 22.24285889 C-19.78848497 19.73019611 -17.26840575 17.21456882 -14.74804688 14.69921875 C-9.83485946 9.79663836 -4.918494 4.89725643 0 0 Z " fill="#F1E7E3" transform="translate(63,269)"/>
<path d="M0 0 C2 2 2 2 2.85522461 4.15454102 C7.6086109 16.09291385 17.52565822 24.1729709 26.5625 32.9375 C28.27678284 34.62163091 29.98968591 36.30716749 31.70117188 37.99414062 C34.83605397 41.08030259 37.97843606 44.15832912 41.13110352 47.22631836 C44.11167096 50.1275902 47.06647389 53.05123568 50 56 C50.72960937 56.71800781 51.45921875 57.43601562 52.2109375 58.17578125 C53.28214844 59.23345703 53.28214844 59.23345703 54.375 60.3125 C55.08398438 61.00988281 55.79296875 61.70726562 56.5234375 62.42578125 C58.41344771 64.39031868 60.17740198 66.36612268 61.94178772 68.43782043 C66.8478738 74.05716723 72.13858574 79.2946941 77.40795898 84.5690918 C78.54889512 85.71466565 79.68963678 86.86043323 80.8302002 88.00637817 C83.90829175 91.09749569 86.98962959 94.18535609 90.07200885 97.27219748 C92.00109443 99.20422706 93.92959706 101.1368367 95.85792732 103.06962013 C101.90192284 109.12725884 107.94789429 115.18291493 113.99677795 121.23567265 C120.96113834 128.20451938 127.91889896 135.17986806 134.87102455 142.16091985 C140.26041394 147.57194871 145.65557668 152.97717672 151.05512863 158.37806445 C154.27378329 161.59776462 157.489987 164.81982338 160.70019341 168.04794884 C163.71827702 171.08255447 166.74349387 174.1098654 169.77422333 177.13183975 C170.881325 178.23817353 171.98589344 179.3470494 173.08764076 180.45871544 C180.26257525 187.69441316 186.89431748 194.22093731 197 197 C195.62447382 200.21650818 194.17099742 201.97385651 191.375 204.0625 C190.74335938 204.54847656 190.11171875 205.03445313 189.4609375 205.53515625 C182.49196674 209.68335313 176.5348906 210.42645263 168.59375 210.29296875 C167.6284436 210.28872391 166.66313721 210.28447906 165.6685791 210.28010559 C162.6120917 210.26343097 159.55628515 210.22579992 156.5 210.1875 C154.41667625 210.17243866 152.33334207 210.1587528 150.25 210.14648438 C145.16640785 210.11356424 140.08331901 210.06186016 135 210 C135 209.67 135 209.34 135 209 C135.6290625 208.85304688 136.258125 208.70609375 136.90625 208.5546875 C142.93290061 206.9754146 148.91046551 204.95770383 153 200 C153.49249925 196.70573102 153.29617026 195.40297241 151.30164242 192.68919659 C150.49955632 191.89301827 149.69747023 191.09683996 148.87107849 190.27653503 C147.49791725 188.89523155 147.49791725 188.89523155 146.09701538 187.48602295 C145.06937749 186.47767626 144.04150706 185.46956653 143.01342773 184.46166992 C141.93997499 183.39126478 140.86762886 182.3197489 139.79631042 181.24720764 C136.88129296 178.3350305 133.95117865 175.43847667 131.0183208 172.54428267 C127.94806354 169.50902172 124.89236427 166.45917914 121.83522034 163.41072083 C116.03445319 157.63067649 110.22149407 151.86306264 104.40370756 146.10015422 C95.88666677 137.66247331 87.38676139 129.20755955 78.88829899 120.75117207 C78.26323363 120.12921756 77.63816828 119.50726306 76.99416155 118.86646146 C75.74682506 117.62533239 74.49951911 116.38417264 73.25224453 115.14298135 C69.61341991 111.52275921 65.97070261 107.90651273 62.32444274 104.29377973 C60.04682389 102.03648897 57.77120313 99.77719063 55.49591255 97.51755333 C54.44679265 96.47663684 53.39676851 95.43663073 52.34573364 94.39764786 C47.17123022 89.28189756 42.09921995 84.15132175 37.39436436 78.59665394 C35.49304048 76.41949254 33.38749058 74.55767938 31.1875 72.6875 C26.62237063 68.67655933 22.59784199 64.36014319 18.6171875 59.7734375 C16.65298988 57.69197435 14.76844392 55.90570209 12.6015625 54.06640625 C5.87802289 48.28129171 -0.25326692 41.85103571 -6.5 35.5625 C-7.81226585 34.24520941 -9.12476395 32.92815014 -10.4375 31.61132812 C-13.62768506 28.4102139 -16.81470651 25.20598135 -20 22 C-18.51346494 18.53370165 -16.54277649 16.30977964 -13.8671875 13.671875 C-12.65869141 12.47304688 -12.65869141 12.47304688 -11.42578125 11.25 C-10.58402344 10.425 -9.74226563 9.6 -8.875 8.75 C-8.02550781 7.90953125 -7.17601562 7.0690625 -6.30078125 6.203125 C-4.20495077 4.13084317 -2.10459287 2.06337607 0 0 Z " fill="#DACDC9" transform="translate(63,269)"/>
<path d="M0 0 C1.49071888 -0.01654372 2.98135895 -0.04381371 4.47167969 -0.08203125 C6.63184321 -0.13707031 8.79015561 -0.15871093 10.95092773 -0.17333984 C12.2410376 -0.19315918 13.53114746 -0.21297852 14.86035156 -0.23339844 C19.54256071 0.53165796 21.11168914 2.02726293 24.43139648 5.35009766 C25.68559822 8.03989395 25.77627967 10.41284256 25.43139648 13.35009766 C23.77626899 16.78767015 22.60877969 18.75093248 19.1809082 20.49536133 C13.80454239 22.1667036 8.13976716 21.6768555 2.55639648 21.66259766 C1.30213867 21.67871094 0.04788086 21.69482422 -1.24438477 21.71142578 C-13.03223188 21.71766274 -13.03223188 21.71766274 -18.56860352 18.35009766 C-21.25070263 14.32694899 -21.25703767 11.07789846 -20.56860352 6.35009766 C-15.84212918 -1.47303228 -8.16334975 0.06634683 0 0 Z " fill="#FEA348" transform="translate(388.568603515625,443.64990234375)"/>
<path d="M0 0 C3.54281383 2.61860153 4.78669043 4.25341652 6 8.5 C6 16.4636675 -1.40827102 21.91969927 -6.625 27.25 C-7.48996094 28.17296875 -8.35492188 29.0959375 -9.24609375 30.046875 C-13.89184899 34.7831772 -17.24679092 38.04241713 -24.05419922 38.34985352 C-27.72492936 37.689859 -29.49862868 35.68897417 -32 33 C-33.63023814 29.73952371 -33.4673535 27.62198965 -33 24 C-31.70996094 22.16821289 -31.70996094 22.16821289 -29.984375 20.28515625 C-29.34886719 19.5890625 -28.71335937 18.89296875 -28.05859375 18.17578125 C-24.66724984 14.59138171 -21.23760397 11.05335733 -17.75 7.5625 C-17.04359375 6.84384766 -16.3371875 6.12519531 -15.609375 5.38476562 C-14.92875 4.70220703 -14.248125 4.01964844 -13.546875 3.31640625 C-12.93682617 2.70224854 -12.32677734 2.08809082 -11.69824219 1.45532227 C-7.94879521 -1.7577964 -4.53996316 -1.09585318 0 0 Z " fill="#FEBE4A" transform="translate(387,394)"/>
</svg>
