<?xml version="1.0" encoding="UTF-8"?>
<svg version="1.1" xmlns="http://www.w3.org/2000/svg" width="512" height="512">
<path d="M0 0 C53.71552374 0 53.71552374 0 68.375 7.8125 C69.03999512 8.15579346 69.70499023 8.49908691 70.39013672 8.8527832 C75.73323943 11.68735332 80.441544 15.02252368 85 19 C85.96808594 19.77214844 86.93617188 20.54429688 87.93359375 21.33984375 C102.0733807 33.14293345 107.41228188 49.79605704 112 67 C112 81.85 112 96.7 112 112 C75.04 112 38.08 112 0 112 C0 75.04 0 38.08 0 0 Z " fill="#00A7FF" transform="translate(336,64)"/>
<path d="M0 0 C0 36.96 0 73.92 0 112 C-36.96 112 -73.92 112 -112 112 C-112 58.28447626 -112 58.28447626 -104.1875 43.625 C-103.84420654 42.96000488 -103.50091309 42.29500977 -103.1472168 41.60986328 C-100.31264668 36.26676057 -96.97747632 31.558456 -93 27 C-91.84177734 25.54787109 -91.84177734 25.54787109 -90.66015625 24.06640625 C-68.30410088 -2.71555237 -31.73245857 0 0 0 Z " fill="#00D3FF" transform="translate(176,64)"/>
<path d="M0 0 C36.96 0 73.92 0 112 0 C112 36.96 112 73.92 112 112 C58.28447626 112 58.28447626 112 43.625 104.1875 C42.62750732 103.67255981 42.62750732 103.67255981 41.60986328 103.1472168 C36.26676057 100.31264668 31.558456 96.97747632 27 93 C26.03191406 92.22785156 25.06382813 91.45570313 24.06640625 90.66015625 C9.9266193 78.85706655 4.58771812 62.20394296 0 45 C0 30.15 0 15.3 0 0 Z " fill="#00D3FF" transform="translate(64,336)"/>
<path d="M0 0 C36.96 0 73.92 0 112 0 C112 53.71380339 112 53.71380339 104.1875 68.375 C103.84493164 69.03927002 103.50236328 69.70354004 103.14941406 70.38793945 C100.31620632 75.73251821 96.95979435 80.42738034 93 85 C92.10474609 86.18916016 92.10474609 86.18916016 91.19140625 87.40234375 C79.08241219 101.75614241 62.63077094 107.29846108 45 112 C30.15 112 15.3 112 0 112 C0 75.04 0 38.08 0 0 Z " fill="#00A7FF" transform="translate(336,336)"/>
<path d="M0 0 C31.68 0 63.36 0 96 0 C96 36.96 96 73.92 96 112 C64.32 112 32.64 112 0 112 C0 75.04 0 38.08 0 0 Z " fill="#00BDFF" transform="translate(208,336)"/>
<path d="M0 0 C36.96 0 73.92 0 112 0 C112 31.68 112 63.36 112 96 C75.04 96 38.08 96 0 96 C0 64.32 0 32.64 0 0 Z " fill="#00A6FF" transform="translate(336,208)"/>
<path d="M0 0 C36.96 0 73.92 0 112 0 C112 31.68 112 63.36 112 96 C75.04 96 38.08 96 0 96 C0 64.32 0 32.64 0 0 Z " fill="#00D4FF" transform="translate(64,208)"/>
<path d="M0 0 C31.68 0 63.36 0 96 0 C96 36.96 96 73.92 96 112 C64.32 112 32.64 112 0 112 C0 75.04 0 38.08 0 0 Z " fill="#00BDFF" transform="translate(208,64)"/>
<path d="M0 0 C31.68 0 63.36 0 96 0 C96 31.68 96 63.36 96 96 C64.32 96 32.64 96 0 96 C0 64.32 0 32.64 0 0 Z " fill="#00BDFF" transform="translate(208,208)"/>
</svg>
