<?xml version="1.0" encoding="UTF-8"?>
<svg version="1.1" xmlns="http://www.w3.org/2000/svg" width="512" height="512">
<path d="M0 0 C0.90045044 -0.00705963 1.80090088 -0.01411926 2.7286377 -0.02139282 C40.56271231 -0.2507174 40.56271231 -0.2507174 57.20703125 3.203125 C58.69759033 3.50911621 58.69759033 3.50911621 60.21826172 3.82128906 C116.9536544 15.819816 171.89521625 46.22252684 207.20703125 93.203125 C207.68172852 93.82848145 208.15642578 94.45383789 208.64550781 95.09814453 C239.11982077 135.44294903 260.14125794 184.80327001 260.41015625 235.99609375 C260.41721588 236.89654419 260.42427551 237.79699463 260.43154907 238.72473145 C260.66087365 276.55880606 260.66087365 276.55880606 257.20703125 293.203125 C256.90104004 294.69368408 256.90104004 294.69368408 256.58886719 296.21435547 C242.51415824 362.76703672 204.11461404 420.01991245 147.23681641 457.50146484 C142.97655694 460.21784308 138.61596235 462.73729689 134.20703125 465.203125 C133.50562012 465.60096191 132.80420898 465.99879883 132.08154297 466.40869141 C99.6789347 484.65696322 61.77676934 496.20999654 24.4140625 496.40625 C23.06338684 496.41683945 23.06338684 496.41683945 21.6854248 496.42764282 C-16.14864981 496.6569674 -16.14864981 496.6569674 -32.79296875 493.203125 C-34.28352783 492.89713379 -34.28352783 492.89713379 -35.80419922 492.58496094 C-102.29810922 478.52268106 -159.75561962 440.10251905 -197.10742188 383.20068359 C-199.80859884 378.94578085 -202.3224062 374.59485547 -204.79296875 370.203125 C-205.15310059 369.57712402 -205.51323242 368.95112305 -205.88427734 368.30615234 C-224.38936501 335.98545493 -235.69710889 297.67901619 -236.03125 260.33203125 C-236.04104385 259.42023102 -236.05083771 258.50843079 -236.06092834 257.56900024 C-236.23260511 237.44104818 -236.06932869 217.96420382 -231.79296875 198.203125 C-231.57866211 197.18605469 -231.36435547 196.16898438 -231.14355469 195.12109375 C-222.96279434 157.25381879 -206.04522667 122.38317423 -181.79296875 92.203125 C-181.32068848 91.61515137 -180.8484082 91.02717773 -180.36181641 90.42138672 C-169.28155041 76.78092213 -156.86582205 63.76685597 -142.79296875 53.203125 C-142.14102539 52.71247559 -141.48908203 52.22182617 -140.81738281 51.71630859 C-130.82707934 44.23817357 -120.66915508 37.32151018 -109.79296875 31.203125 C-109.16696777 30.84299316 -108.5409668 30.48286133 -107.89599609 30.11181641 C-75.65552438 11.65266164 -37.27934428 0.19581559 0 0 Z M-47.79296875 184.203125 C-48.42460937 184.75355469 -49.05625 185.30398437 -49.70703125 185.87109375 C-64.72011898 199.75305843 -74.0990229 221.12399511 -75.20703125 241.328125 C-76.0464848 267.02831823 -69.39418076 289.09697665 -51.79296875 308.203125 C-50.96925781 309.14671875 -50.96925781 309.14671875 -50.12890625 310.109375 C-35.17742725 326.3129483 -12.11522675 335.2490781 9.5859375 336.234375 C33.26941274 336.02998686 54.62008817 328.18328757 72.20703125 312.203125 C72.83867187 311.65269531 73.4703125 311.10226562 74.12109375 310.53515625 C89.13418148 296.65319157 98.5130854 275.28225489 99.62109375 255.078125 C100.4605473 229.37793177 93.80824326 207.30927335 76.20703125 188.203125 C75.65789062 187.5740625 75.10875 186.945 74.54296875 186.296875 C59.59148975 170.0933017 36.52928925 161.1571719 14.828125 160.171875 C-8.85535024 160.37626314 -30.20602567 168.22296243 -47.79296875 184.203125 Z " fill="#E9573E" transform="translate(243.79296875,7.796875)"/>
<path d="M0 0 C53.13 0 106.26 0 161 0 C161.99 8.91 161.99 8.91 163 18 C168.85790522 40.57016425 180.62945832 60.92409086 201.15185547 73.28759766 C222.68040209 85.64428876 245.87151186 90.07328683 270.109375 84.03125 C291.70340004 78.08851577 311.04285085 64.69713885 322.3125 45.0625 C330.49169406 30.20921271 333.6965662 16.94463942 335 0 C388.13 0 441.26 0 496 0 C496 25.67727882 496 25.67727882 494.875 33.3125 C494.74448242 34.24433105 494.61396484 35.17616211 494.47949219 36.13623047 C484.7463264 101.06356811 449.41040151 160.7323888 396.57470703 199.80200195 C387.99879643 206.06596522 379.26704603 211.81712412 370 217 C369.29858887 217.39783691 368.59717773 217.79567383 367.87451172 218.20556641 C335.47190345 236.45383822 297.56973809 248.00687154 260.20703125 248.203125 C258.85635559 248.21371445 258.85635559 248.21371445 257.47839355 248.22451782 C219.64431894 248.4538424 219.64431894 248.4538424 203 245 C202.00629395 244.79600586 201.01258789 244.59201172 199.98876953 244.38183594 C133.49485953 230.31955606 76.03734913 191.89939405 38.68554688 134.99755859 C35.98436991 130.74265585 33.47056255 126.39173047 31 122 C30.63986816 121.37399902 30.27973633 120.74799805 29.90869141 120.10302734 C8.6992423 83.05893443 0 42.35925436 0 0 Z " fill="#37BC9A" transform="translate(8,256)"/>
<path d="M0 0 C53.13 0 106.26 0 161 0 C161.99 8.91 161.99 8.91 163 18 C168.85790522 40.57016425 180.62945832 60.92409086 201.15185547 73.28759766 C214.95160753 81.20821007 228.79232774 85.91266723 244.734375 86.7890625 C247 87 247 87 248 88 C248.09681822 90.06294278 248.12186923 92.12926042 248.12025452 94.19447327 C248.12153615 95.17580747 248.12153615 95.17580747 248.12284368 96.17696661 C248.12450028 98.38501343 248.11897421 100.59298548 248.11352539 102.80102539 C248.11324353 104.37750751 248.11340123 105.95398976 248.1139679 107.5304718 C248.11425592 111.82367549 248.1083584 116.11685149 248.10139394 120.41004872 C248.09516121 124.89172683 248.09455667 129.37340551 248.09336853 133.85508728 C248.09025497 142.34780909 248.08204126 150.84051809 248.07201904 159.33323425 C248.06085866 168.99933539 248.05534764 178.66543712 248.05032361 188.33154309 C248.03985866 208.22103588 248.02225875 228.11051714 248 248 C244.4646031 248.01301543 240.92921243 248.02087415 237.39379883 248.02783203 C235.899044 248.03342888 235.899044 248.03342888 234.3740921 248.03913879 C227.74241351 248.04892725 221.25717999 247.84299946 214.6875 246.875 C213.75566895 246.74448242 212.82383789 246.61396484 211.86376953 246.47949219 C146.92864315 236.7451588 87.27167423 201.40458211 48.19995117 148.57641602 C41.93315814 140.00018869 36.20625994 131.25477091 31 122 C30.63986816 121.37399902 30.27973633 120.74799805 29.90869141 120.10302734 C8.6992423 83.05893443 0 42.35925436 0 0 Z " fill="#9579DC" transform="translate(8,256)"/>
<path d="M0 0 C3.85543799 1.58470987 6.27694154 4.0418292 9.19238281 6.98120117 C9.69705582 7.48718842 10.20172882 7.99317566 10.72169495 8.51449585 C12.38681876 10.18610213 14.04484788 11.86457259 15.703125 13.54296875 C16.86600366 14.7121239 18.02940303 15.88076134 19.19329834 17.04890442 C22.2588443 20.12775119 25.31878415 23.21210461 28.37713623 26.2980957 C33.25623405 31.22028414 38.14191984 36.1359079 43.03108978 41.04808998 C44.72836499 42.75548655 46.42212307 44.46631343 48.11553955 46.17753601 C52.91289592 51.01208044 57.74248111 55.7268402 62.92449951 60.15281677 C67.72385877 64.42421828 72.18839725 69.0680661 76.71875 73.62109375 C77.82810833 74.73232123 78.93769067 75.84332512 80.04748535 76.95411682 C82.94302616 79.85344371 85.83554907 82.75576272 88.72741699 85.65875244 C91.68882864 88.63046306 94.65313554 91.59928267 97.6171875 94.56835938 C103.4142681 100.3761082 109.2081582 106.18702673 115 112 C113.4746478 115.18628205 111.76955684 117.52565734 109.4375 120.1875 C101.63853175 129.88658052 96.20819812 140.73898208 93 152.75 C92.80446533 153.48081787 92.60893066 154.21163574 92.4074707 154.96459961 C90.77229887 161.7429529 90.55148735 167.83066448 90 175 C36.87 175 -16.26 175 -71 175 C-71 148.25869722 -71 148.25869722 -69.375 138.5625 C-69.19678711 137.44399658 -69.01857422 136.32549316 -68.83496094 135.1730957 C-60.38367331 84.47609492 -36.94750992 36.14284546 0 0 Z " fill="#D76FAD" transform="translate(79,81)"/>
<path d="M0 0 C1.50626953 0.00676758 1.50626953 0.00676758 3.04296875 0.01367188 C5.48704471 0.02531033 7.9309882 0.0416576 10.375 0.0625 C10.39832712 20.90663603 10.41597826 41.75076992 10.42681217 62.59491634 C10.43197553 72.27251051 10.43901897 81.95009658 10.45043945 91.62768555 C10.46038509 100.05950331 10.46685314 108.49131521 10.46908849 116.92313868 C10.47039581 121.39057392 10.47348295 125.8579924 10.48073006 130.32542229 C10.48748838 134.5253416 10.48961735 138.72523713 10.48810768 142.92516136 C10.48838409 144.47118509 10.49039033 146.01720956 10.49420547 147.56322861 C10.4991398 149.66485776 10.49799928 151.76639572 10.49525452 153.86802673 C10.49663721 155.63648657 10.49663721 155.63648657 10.49804783 157.44067287 C10.375 160.0625 10.375 160.0625 9.375 161.0625 C7.60359113 161.2581418 5.83129259 161.44770972 4.05615234 161.60595703 C-15.45141884 163.40175738 -32.79731863 170.2291858 -47.453125 183.375 C-49.625 185.0625 -49.625 185.0625 -52.625 185.0625 C-54.49363243 183.47009967 -56.17868638 181.87653027 -57.88745117 180.12475586 C-58.41148529 179.59955353 -58.93551941 179.0743512 -59.47543335 178.53323364 C-61.2133317 176.78812561 -62.94046611 175.03273814 -64.66796875 173.27734375 C-65.87689959 172.06027399 -67.08657144 170.84393988 -68.29695129 169.62831116 C-71.49131614 166.41679139 -74.67703167 163.19683211 -77.8605957 159.97460938 C-82.93606534 154.84010051 -88.02396679 149.71792224 -93.11278725 144.59665108 C-94.88133239 142.8142668 -96.64592637 141.02804582 -98.40995789 139.24119568 C-103.32056262 134.27962923 -108.25051356 129.42384954 -113.56611633 124.89183044 C-118.36268984 120.63004621 -122.81938926 115.98841191 -127.34375 111.44140625 C-128.45310833 110.33017877 -129.56269067 109.21917488 -130.67248535 108.10838318 C-133.56802616 105.20905629 -136.46054907 102.30673728 -139.35241699 99.40374756 C-142.31382864 96.43203694 -145.27813554 93.46321733 -148.2421875 90.49414062 C-154.0392681 84.6863918 -159.8331582 78.87547327 -165.625 73.0625 C-164.67682862 71.94583006 -163.72715431 70.83043617 -162.77685547 69.71557617 C-162.24816864 69.09430344 -161.71948181 68.4730307 -161.17477417 67.83293152 C-123.76720313 25.09925839 -55.65129832 -0.48295519 0 0 Z " fill="#DA4453" transform="translate(245.625,7.9375)"/>
<path d="M0 0 C53.13 0 106.26 0 161 0 C161 25.67727882 161 25.67727882 159.875 33.3125 C159.74448242 34.24433105 159.61396484 35.17616211 159.47949219 36.13623047 C151.46875666 89.57369796 126.72103551 135.91788268 90 175 C86.14456201 173.41529013 83.72305846 170.9581708 80.80761719 168.01879883 C80.30294418 167.51281158 79.79827118 167.00682434 79.27830505 166.48550415 C77.61318124 164.81389787 75.95515212 163.13542741 74.296875 161.45703125 C73.13399634 160.2878761 71.97059697 159.11923866 70.80670166 157.95109558 C67.7411557 154.87224881 64.68121585 151.78789539 61.62286377 148.7019043 C56.74376595 143.77971586 51.85808016 138.8640921 46.96891022 133.95191002 C45.27163501 132.24451345 43.57787693 130.53368657 41.88446045 128.82246399 C37.08710408 123.98791956 32.25751889 119.2731598 27.07550049 114.84718323 C22.27614123 110.57578172 17.81160275 105.9319339 13.28125 101.37890625 C12.17189167 100.26767877 11.06230933 99.15667488 9.95251465 98.04588318 C7.05697384 95.14655629 4.16445093 92.24423728 1.27258301 89.34124756 C-1.68882864 86.36953694 -4.65313554 83.40071733 -7.6171875 80.43164062 C-13.4142681 74.6238918 -19.2081582 68.81297327 -25 63 C-23.4746478 59.81371795 -21.76955684 57.47434266 -19.4375 54.8125 C-11.63853175 45.11341948 -6.20819812 34.26101792 -3 22.25 C-2.80446533 21.51918213 -2.60893066 20.78836426 -2.4074707 20.03540039 C-0.77229887 13.2570471 -0.55148735 7.16933552 0 0 Z " fill="#8CC152" transform="translate(343,256)"/>
<path d="M0 0 C28.88992765 13.93444268 50.07587728 64.24901113 60.23217773 92.54931641 C69.57807324 119.73083544 73 146.22037676 73 175 C19.87 175 -33.26 175 -88 175 C-88.66 169.06 -89.32 163.12 -90 157 C-93.96007783 141.74205306 -99.7541649 128.94299183 -110.3125 117.171875 C-112 115 -112 115 -112 112 C-110.25085449 109.88171101 -110.25085449 109.88171101 -107.74804688 107.38728333 C-107.29068901 106.92736219 -106.83333115 106.46744105 -106.36211395 105.9935829 C-104.82137577 104.44788694 -103.27012815 102.91318508 -101.71875 101.37817383 C-100.61467164 100.27494131 -99.51125271 99.17104852 -98.40844727 98.06654358 C-95.40696051 95.06419377 -92.39629358 92.07120283 -89.38394165 89.07975984 C-86.2395531 85.95408642 -83.1036212 82.81995255 -79.96679688 79.68669128 C-74.02290146 73.75213153 -68.07139796 67.8252624 -62.11714935 61.90109223 C-55.33992023 55.1573598 -48.57117681 48.4051378 -41.80314636 41.65217555 C-27.87821125 27.75862391 -13.94261003 13.87581274 0 0 Z " fill="#F6BB42" transform="translate(431,81)"/>
<path d="M0 0 C1.28259097 0.96085836 2.56503308 1.92191544 3.84741211 2.88305664 C4.56158798 3.41822403 5.27576385 3.95339142 6.01158142 4.504776 C7.49385092 5.61939289 8.96940453 6.74295163 10.44140625 7.87109375 C24.67126208 18.37969815 41.20702211 23.99360131 58.83984375 24.82421875 C61 25 61 25 62 26 C62.09681822 28.06294278 62.12186923 30.12926042 62.12025452 32.19447327 C62.12153615 33.17580747 62.12153615 33.17580747 62.12284368 34.17696661 C62.12450028 36.38501343 62.11897421 38.59298548 62.11352539 40.80102539 C62.11324353 42.37750751 62.11340123 43.95398976 62.1139679 45.5304718 C62.11425592 49.82367549 62.1083584 54.11685149 62.10139394 58.41004872 C62.09516121 62.89172683 62.09455667 67.37340551 62.09336853 71.85508728 C62.09025497 80.34780909 62.08204126 88.84051809 62.07201904 97.33323425 C62.06085866 106.99933539 62.05534764 116.66543712 62.05032361 126.33154309 C62.03985866 146.22103588 62.02225875 166.11051714 62 186 C58.4646031 186.01301543 54.92921243 186.02087415 51.39379883 186.02783203 C49.899044 186.03342888 49.899044 186.03342888 48.3740921 186.03913879 C41.74241351 186.04892725 35.25717999 185.84299946 28.6875 184.875 C27.75566895 184.74448242 26.82383789 184.61396484 25.86376953 184.47949219 C-20.55665255 177.52067206 -64.50508251 157.78320278 -100 127 C-100.53592773 126.54173828 -101.07185547 126.08347656 -101.62402344 125.61132812 C-103.32445363 124.15049078 -105.0079818 122.67230578 -106.6875 121.1875 C-107.48281128 120.50288696 -107.48281128 120.50288696 -108.29418945 119.80444336 C-109.76171875 118.48046875 -109.76171875 118.48046875 -112 116 C-112 112 -112 112 -110.25085449 109.75866318 C-109.01196472 108.52530416 -109.01196472 108.52530416 -107.74804688 107.26702881 C-107.29068901 106.80625324 -106.83333115 106.34547768 -106.36211395 105.87073922 C-104.82368073 104.32570552 -103.27136347 102.795422 -101.71875 101.26464844 C-100.61445685 100.1614833 -99.5110432 99.05743717 -98.40844727 97.95257568 C-95.40917088 94.95214941 -92.39770171 91.96423435 -89.38394165 88.9783659 C-86.23776798 85.85715992 -83.10288254 82.72465879 -79.96679688 79.59332275 C-74.02489038 73.66385964 -68.07285898 67.7446684 -62.11714935 61.82907319 C-55.33795143 55.0945505 -48.57007822 48.34869614 -41.80314636 41.60185194 C-27.88135467 27.72189544 -13.94535745 13.85627685 0 0 Z " fill="#4A89DC" transform="translate(194,318)"/>
<path d="M0 0 C26.73 0 53.46 0 81 0 C81 18.58448248 81 18.58448248 79.8125 24.8125 C79.6117688 25.92069092 79.6117688 25.92069092 79.40698242 27.05126953 C72.67407103 62.69256424 57.12161701 92.88934295 32 119 C25.38927013 113.5664118 19.40785804 107.53553957 13.37890625 101.4765625 C12.26811831 100.36390615 11.1571069 99.25147284 10.04588318 98.13925171 C7.14211066 95.2316873 4.24135564 92.32113095 1.34124756 89.40991211 C-1.62678263 86.43159571 -4.59769662 83.45615894 -7.56835938 80.48046875 C-13.38171083 74.65643877 -19.19187334 68.8292405 -25 63 C-23.4746478 59.81371795 -21.76955684 57.47434266 -19.4375 54.8125 C-11.63853175 45.11341948 -6.20819812 34.26101792 -3 22.25 C-2.80446533 21.51918213 -2.60893066 20.78836426 -2.4074707 20.03540039 C-0.77229887 13.2570471 -0.55148735 7.16933552 0 0 Z " fill="#9FD368" transform="translate(343,256)"/>
<path d="M0 0 C26.73 0 53.46 0 81 0 C81.99 8.91 81.99 8.91 83 18 C86.9498325 33.21847227 92.69337514 46.05301894 103.3125 57.73046875 C105 60 105 60 105 64 C103.37651103 65.99749414 101.78648047 67.71894181 99.95117188 69.50292969 C99.41472549 70.03996017 98.87827911 70.57699066 98.32557678 71.1302948 C96.54928422 72.90379965 94.75924193 74.66271612 92.96875 76.421875 C91.73476725 77.64839784 90.50166443 78.87580655 89.26940918 80.10406494 C86.02305061 83.33514768 82.76485959 86.55403947 79.50408936 89.77056885 C76.17911378 93.05463411 72.86542654 96.35004559 69.55078125 99.64453125 C63.04487483 106.10753238 56.52641643 112.5577154 50 119 C48.88419004 118.05783941 47.77040767 117.11327723 46.6574707 116.16772461 C46.0370137 115.64198349 45.4165567 115.11624237 44.77729797 114.5745697 C18.08338551 90.92551005 2.69279714 49.60952954 0 15 C0 10.05 0 5.1 0 0 Z " fill="#AB92EB" transform="translate(88,256)"/>
<path d="M0 0 C2.37479051 -0.01805978 4.74944098 -0.03116675 7.12426758 -0.04150391 C8.12185467 -0.04985008 8.12185467 -0.04985008 9.13959503 -0.05836487 C15.1196581 -0.07783234 20.81236286 0.57691013 26.6875 1.625 C28.21914795 1.89231934 28.21914795 1.89231934 29.78173828 2.16503906 C56.14230618 7.00401891 80.79359416 17.51994854 102 34 C102.96164062 34.74507812 103.92328125 35.49015625 104.9140625 36.2578125 C110.37211106 40.59777025 114.35476922 44.5805641 119 50 C100.52 68.48 82.04 86.96 63 106 C59.58482677 104.29241338 57.61305424 102.89108292 54.8125 100.4375 C40.04485106 88.56292848 21.99670051 81.8752183 3.0546875 81.140625 C1 81 1 81 0 80 C-0.09502416 77.50507612 -0.12557566 75.03793986 -0.11352539 72.54272461 C-0.11367142 71.76229294 -0.11381744 70.98186127 -0.1139679 70.17778015 C-0.11326858 67.5859402 -0.10547536 64.99417122 -0.09765625 62.40234375 C-0.09579213 60.6101536 -0.0943682 58.81796294 -0.09336853 57.02577209 C-0.08954284 52.29929203 -0.07971212 47.57284248 -0.06866455 42.84637451 C-0.05845153 38.0271445 -0.05387115 33.20790958 -0.04882812 28.38867188 C-0.03808989 18.92576781 -0.02101286 9.46288644 0 0 Z " fill="#FB6E50" transform="translate(256,88)"/>
<path d="M0 0 C4.2666516 0.47008073 6.55411967 3.15072687 9.41113281 6.07055664 C10.20204819 6.8608149 10.20204819 6.8608149 11.00894165 7.66703796 C12.74754276 9.40772673 14.47528056 11.15879514 16.203125 12.91015625 C17.40744591 14.12007318 18.6124315 15.32932884 19.8180542 16.53794861 C22.98771423 19.71905685 26.14826162 22.90907153 29.30700684 26.10101318 C32.53255798 29.35726553 35.76663024 32.60503012 39 35.85351562 C45.34171079 42.22739016 51.67382881 48.61070451 58 55 C56.4746478 58.18628205 54.76955684 60.52565734 52.4375 63.1875 C44.63853175 72.88658052 39.20819812 83.73898208 36 95.75 C35.80446533 96.48081787 35.60893066 97.21163574 35.4074707 97.96459961 C33.77229887 104.7429529 33.55148735 110.83066448 33 118 C6.27 118 -20.46 118 -48 118 C-48 73.01304287 -30.56476876 32.70577913 0 0 Z " fill="#EB86BF" transform="translate(136,138)"/>
<path d="M0 0 C6.61072987 5.4335882 12.59214196 11.46446043 18.62109375 17.5234375 C19.73188169 18.63609385 20.8428931 19.74852716 21.95411682 20.86074829 C24.85788934 23.7683127 27.75864436 26.67886905 30.65875244 29.59008789 C33.62678263 32.56840429 36.59769662 35.54384106 39.56835938 38.51953125 C45.38171083 44.34356123 51.19187334 50.1707595 57 56 C47.94963933 75.298006 17.03677777 88.90632349 -1.75 95.875 C-12.7789096 99.79790726 -23.89114537 102.78038278 -35.4375 104.75 C-36.15164063 104.87793945 -36.86578125 105.00587891 -37.6015625 105.13769531 C-42.86165149 105.96394823 -48.01420097 106.06410742 -53.32446289 106.03222656 C-54.43401714 106.02873703 -54.43401714 106.02873703 -55.56598663 106.025177 C-57.37733382 106.0191439 -59.18866981 106.00989748 -61 106 C-61.02312359 95.58657075 -61.04091517 85.17314756 -61.05181217 74.75969791 C-61.05704097 69.92483173 -61.06413854 65.08998306 -61.07543945 60.25512695 C-61.08626847 55.5932288 -61.09227686 50.93134754 -61.09487724 46.26943779 C-61.09673147 44.48675712 -61.10035203 42.70407741 -61.10573006 40.92140388 C-61.11294069 38.4333404 -61.11399093 35.94534757 -61.11352539 33.45727539 C-61.1189183 32.34057968 -61.1189183 32.34057968 -61.12442017 31.20132446 C-61.11405216 26.11405216 -61.11405216 26.11405216 -60 25 C-58.22859113 24.8043582 -56.45629259 24.61479028 -54.68115234 24.45654297 C-34.04789401 22.55711571 -14.82508969 14.82508969 0 0 Z " fill="#47CEAC" transform="translate(317,318)"/>
<path d="M0 0 C19.6853767 9.1840986 33.11707603 41.12146833 40.24609375 60.02734375 C47.1708062 79.18933907 50 97.5821854 50 118 C23.27 118 -3.46 118 -31 118 C-31.66 112.06 -32.32 106.12 -33 100 C-36.96007783 84.74205306 -42.7541649 71.94299183 -53.3125 60.171875 C-55 58 -55 58 -55 55 C-53.37136418 53.08997105 -51.7392732 51.36119653 -49.95117188 49.6105957 C-49.41472549 49.07371124 -48.87827911 48.53682678 -48.32557678 47.9836731 C-46.54698508 46.20717488 -44.75799559 44.44154341 -42.96875 42.67578125 C-41.73498459 41.44760979 -40.50187896 40.21877521 -39.26940918 38.98930359 C-36.02087554 35.7522345 -32.76343403 32.52427425 -29.50408936 29.2980957 C-26.18091899 26.00559141 -22.86620549 22.70459784 -19.55078125 19.40429688 C-13.04212776 12.92783594 -6.52403721 6.46096134 0 0 Z " fill="#FECD53" transform="translate(374,138)"/>
<path d="M0 0 C1.28259097 0.96085836 2.56503308 1.92191544 3.84741211 2.88305664 C4.91867592 3.68580772 4.91867592 3.68580772 6.01158142 4.504776 C7.49385092 5.61939289 8.96940453 6.74295163 10.44140625 7.87109375 C24.67126208 18.37969815 41.20702211 23.99360131 58.83984375 24.82421875 C61 25 61 25 62 26 C62.09502416 28.49492388 62.12557566 30.96206014 62.11352539 33.45727539 C62.11367142 34.23770706 62.11381744 35.01813873 62.1139679 35.82221985 C62.11326858 38.4140598 62.10547536 41.00582878 62.09765625 43.59765625 C62.09579213 45.3898464 62.0943682 47.18203706 62.09336853 48.97422791 C62.08954284 53.70070797 62.07971212 58.42715752 62.06866455 63.15362549 C62.05845153 67.9728555 62.05387115 72.79209042 62.04882812 77.61132812 C62.03808989 87.07423219 62.02101286 96.53711356 62 106 C59.60407232 106.01112447 57.208197 106.01923588 54.81225586 106.02563477 C54.13868797 106.02907143 53.46512009 106.03250809 52.77114105 106.03604889 C47.61653179 106.04636184 42.64884341 105.74286557 37.5625 104.9375 C36.32814209 104.74450317 36.32814209 104.74450317 35.06884766 104.54760742 C17.63207102 101.57864275 0.76774772 95.98144655 -15 88 C-15.61488281 87.68981934 -16.22976562 87.37963867 -16.86328125 87.06005859 C-31.40661814 79.57055695 -44.22620051 69.27490968 -56 58 C-54.41600411 54.10604884 -51.75803057 51.48847765 -48.81591797 48.58886719 C-48.28893311 48.06159027 -47.76194824 47.53431335 -47.21899414 46.99105835 C-45.48142524 45.25487928 -43.73688686 43.525886 -41.9921875 41.796875 C-40.78391678 40.59233563 -39.57608778 39.38735303 -38.36868286 38.1819458 C-35.19362923 35.01451894 -32.01261478 31.85314487 -28.83032227 28.69299316 C-25.58247924 25.46562911 -22.34030867 22.23257772 -19.09765625 19 C-12.73731018 12.66108697 -6.37065247 6.32855376 0 0 Z " fill="#5C9BEB" transform="translate(194,318)"/>
<path d="M0 0 C1.19338234 0.00401825 1.19338234 0.00401825 2.41087341 0.00811768 C3.30879356 0.013284 3.30879356 0.013284 4.22485352 0.01855469 C4.24797711 10.43198394 4.26576868 20.84540712 4.27666569 31.25885677 C4.28189448 36.09372295 4.28899206 40.92857163 4.30029297 45.76342773 C4.31112198 50.42532588 4.31713038 55.08720715 4.31973076 59.7491169 C4.32158498 61.53179757 4.32520554 63.31447728 4.33058357 65.0971508 C4.3377942 67.58521429 4.33884445 70.07320712 4.33837891 72.5612793 C4.34197418 73.3057431 4.34556946 74.05020691 4.34927368 74.81723022 C4.33890568 79.90450253 4.33890568 79.90450253 3.22485352 81.01855469 C1.45344464 81.21419648 -0.31885389 81.40376441 -2.09399414 81.56201172 C-21.60156533 83.35781207 -38.94746512 90.18524049 -53.60327148 103.33105469 C-55.77514648 105.01855469 -55.77514648 105.01855469 -58.77514648 105.01855469 C-60.68517543 103.38991887 -62.41394996 101.75782788 -64.16455078 99.96972656 C-64.70143524 99.43328018 -65.2383197 98.8968338 -65.79147339 98.34413147 C-67.56797161 96.56553976 -69.33360307 94.77655028 -71.09936523 92.98730469 C-72.3275367 91.75353928 -73.55637128 90.52043365 -74.7858429 89.28796387 C-78.02291198 86.03943023 -81.25087224 82.78198872 -84.47705078 79.52264404 C-87.76955507 76.19947368 -91.07054864 72.88476018 -94.37084961 69.56933594 C-100.84731054 63.06068245 -107.31418514 56.54259189 -113.77514648 50.01855469 C-104.65126871 30.62399944 -72.14784131 16.94001117 -53.13452148 9.61621094 C-36.15313003 3.67272393 -18.04559821 -0.07925255 0 0 Z " fill="#EC5464" transform="translate(251.775146484375,87.9814453125)"/>
</svg>
